<svg width="73" height="24" viewBox="0 0 73 24" fill="none" xmlns="http://www.w3.org/2000/svg">
<g id="QDay logo v1">
<g id="Group 1000003098">
<circle id="Ellipse 62" cx="10.5906" cy="11.1854" r="9.36771" stroke="#2d2d2d" stroke-width="2.44375"/>
<path id="Rectangle 76" d="M16.6745 18.4602L13.6206 12.9973L19.8786 12.9107L22.7444 18.265L16.6745 18.4602Z" fill="#2d2d2d"/>
</g>
<g id="Day">
<path id="Vector" d="M55.0038 5.84534H58.7586L62.5495 10.4125C62.9286 10.8818 63.416 11.3512 63.777 11.983C64.138 11.3512 64.6254 10.8818 65.0226 10.4125L68.8135 5.84534H72.5683L66.4667 12.5065C66.0696 12.9397 65.0767 13.9145 65.0767 14.6547V18.1928H62.4953V14.6547C62.4953 13.8965 61.4844 12.9217 61.1053 12.5065L55.0038 5.84534Z" fill="#2d2d2d"/>
<path id="Vector_2" d="M53.2729 8.28232L58.3454 18.1928H55.5654L53.9949 15.142H44.8968L43.3263 18.1928H40.5643L45.6189 8.28232C46.3951 6.74791 47.3338 5.66479 49.4459 5.66479C51.5579 5.66479 52.4786 6.74791 53.2729 8.28232ZM52.8035 12.8494L50.7275 8.80582C50.4568 8.28232 50.1138 7.95738 49.4459 7.95738C48.7779 7.95738 48.435 8.28232 48.1642 8.80582L46.0702 12.8494H52.8035Z" fill="#2d2d2d"/>
<path id="Vector_3" d="M24.8564 18.1928V5.84534H35.0016C39.4243 5.84534 40.9407 7.95741 40.9407 12.0191C40.9407 16.0808 39.4243 18.1928 35.0016 18.1928H24.8564ZM38.3051 12.0191C38.3051 9.65428 37.9441 8.35455 35.0016 8.35455H27.4379V15.6656H35.0016C37.9441 15.6656 38.3051 14.3839 38.3051 12.0191Z" fill="#2d2d2d"/>
</g>
</g>
</svg>
